# Blender v2.91.0 OBJ File: ''
# www.blender.org
mtllib pyramid_2024.mtl
o Hologram_Prism_2024
v 6.549659 31.508499 -5.007961
v -3.450341 31.508499 -5.007961
v -3.450341 31.508499 4.992039
v 6.549659 31.508499 4.992039
v 34.588657 4.029500 33.031040
v -31.490339 4.029500 33.031040
v 34.588657 4.029500 -33.046963
v -31.490339 4.029500 -33.046963
vn 0.0000 1.0000 0.0000
vn 0.0000 0.7142 0.6999
vn 0.0000 -1.0000 0.0000
vn -0.6999 0.7142 0.0000
vn 0.0000 0.7142 -0.6999
vn 0.6999 0.7142 0.0000
usemtl None
s off
f 1//1 2//1 3//1
f 1//1 3//1 4//1
f 5//2 4//2 3//2
f 5//3 6//3 7//3
f 8//3 7//3 6//3
f 6//4 3//4 2//4
f 8//5 1//5 7//5
f 2//5 1//5 8//5
f 6//4 2//4 8//4
f 7//6 4//6 5//6
f 1//6 4//6 7//6
f 5//2 3//2 6//2
